<svg xmlns="http://www.w3.org/2000/svg" viewBox="-13.32 52.094 532.112 377.36">
  <rect
    style="stroke: rgb(0, 0, 0); fill: none; stroke-width: 2px"
    x="157.294"
    y="193.225"
    width="194.26"
    height="88.466"
    rx="5"
    ry="5"
  ></rect>
  <defs></defs>
  <text
    style="
      fill: rgb(51, 51, 51);
      font-family: Arial, sans-serif;
      font-size: 19px;
      font-weight: 700;
    "
    x="220.772"
    y="244.265"
  >
    STAGE
  </text>
  <ellipse
    style="stroke: rgb(0, 0, 0)"
    cx="118.124"
    cy="206.21"
    rx="6.21"
    ry="6.21"
    id="seat-1-A-1"
  ></ellipse>
  <ellipse
    style="stroke: rgb(0, 0, 0); stroke-width: 1"
    cx="118.124"
    cy="226.21"
    rx="6.21"
    ry="6.21"
    id="seat-2-A-1"
  ></ellipse>
  <ellipse
    style="stroke: rgb(0, 0, 0); stroke-width: 1"
    cx="118.124"
    cy="266.21"
    rx="6.21"
    ry="6.21"
    id="seat-4-A-1"
  ></ellipse>
  <ellipse
    style="stroke: rgb(0, 0, 0); stroke-width: 1"
    cx="93.124"
    cy="206.21"
    rx="6.21"
    ry="6.21"
    id="seat-2-B-1"
  ></ellipse>
  <ellipse
    style="stroke: rgb(0, 0, 0); stroke-width: 1"
    cx="93.124"
    cy="226.21"
    rx="6.21"
    ry="6.21"
    id="seat-3-B-1"
  ></ellipse>
  <ellipse
    style="stroke: rgb(0, 0, 0); stroke-width: 1"
    cx="93.124"
    cy="246.21"
    rx="6.21"
    ry="6.21"
    id="seat-4-B-1"
  ></ellipse>
  <ellipse
    style="stroke: rgb(0, 0, 0); stroke-width: 1"
    cx="93.124"
    cy="266.21"
    rx="6.21"
    ry="6.21"
    id="seat-5-B-1"
  ></ellipse>
  <ellipse
    style="stroke: rgb(0, 0, 0); stroke-width: 1"
    cx="68.124"
    cy="206.21"
    rx="6.21"
    ry="6.21"
    id="seat-3-C-1"
  ></ellipse>
  <ellipse
    style="stroke: rgb(0, 0, 0); stroke-width: 1"
    cx="68.124"
    cy="226.21"
    rx="6.21"
    ry="6.21"
    id="seat-4-C-1"
  ></ellipse>
  <ellipse
    style="stroke: rgb(0, 0, 0); stroke-width: 1"
    cx="68.124"
    cy="246.21"
    rx="6.21"
    ry="6.21"
    id="seat-5-C-1"
  ></ellipse>
  <ellipse
    style="stroke: rgb(0, 0, 0); stroke-width: 1"
    cx="68.124"
    cy="266.21"
    rx="6.21"
    ry="6.21"
    id="seat-6-C-1"
  ></ellipse>
  <ellipse
    style="stroke: rgb(0, 0, 0); stroke-width: 1"
    cx="43.124"
    cy="206.21"
    rx="6.21"
    ry="6.21"
    id="seat-4-D-1"
  ></ellipse>
  <ellipse
    style="stroke: rgb(0, 0, 0); stroke-width: 1"
    cx="43.124"
    cy="226.21"
    rx="6.21"
    ry="6.21"
    id="seat-5-D-1"
  ></ellipse>
  <ellipse
    style="stroke: rgb(0, 0, 0); stroke-width: 1"
    cx="43.124"
    cy="246.21"
    rx="6.21"
    ry="6.21"
    id="seat-6-D-1"
  ></ellipse>
  <ellipse
    style="stroke: rgb(0, 0, 0); stroke-width: 1"
    cx="43.124"
    cy="266.21"
    rx="6.21"
    ry="6.21"
    id="seat-7-D-1"
  ></ellipse>
  <ellipse
    style="stroke: rgb(0, 0, 0); stroke-width: 1"
    cx="18.124"
    cy="206.21"
    rx="6.21"
    ry="6.21"
    id="seat-5-E-1"
  ></ellipse>
  <ellipse
    style="stroke: rgb(0, 0, 0); stroke-width: 1"
    cx="18.124"
    cy="246.21"
    rx="6.21"
    ry="6.21"
    id="seat-7-E-1"
  ></ellipse>
  <ellipse
    style="stroke: rgb(0, 0, 0); stroke-width: 1"
    cx="18.124"
    cy="266.21"
    rx="6.21"
    ry="6.21"
    id="seat-8-E-1"
  ></ellipse>
  <ellipse
    style="stroke: rgb(0, 0, 0); stroke-width: 1"
    cx="43.083"
    cy="186.21"
    rx="6.21"
    ry="6.21"
    id="seat-3-D-1"
  ></ellipse>
  <ellipse
    style="stroke: rgb(0, 0, 0); stroke-width: 1"
    cx="18.083"
    cy="186.21"
    rx="6.21"
    ry="6.21"
    id="seat-4-E-1"
  ></ellipse>
  <ellipse
    style="stroke: rgb(0, 0, 0); stroke-width: 1"
    cx="68.11"
    cy="186.21"
    rx="6.21"
    ry="6.21"
    id="seat-2-C-1"
  ></ellipse>
  <ellipse
    style="stroke: rgb(0, 0, 0); stroke-width: 1"
    cx="42.878"
    cy="166.573"
    rx="6.21"
    ry="6.21"
    id="seat-2-D-1"
  ></ellipse>
  <ellipse
    style="stroke: rgb(0, 0, 0); stroke-width: 1"
    cx="19.105"
    cy="145.634"
    rx="6.21"
    ry="6.21"
    id="seat-2-E-1"
  ></ellipse>
  <ellipse
    style="stroke: rgb(0, 0, 0); stroke-width: 1"
    cx="92.042"
    cy="187.037"
    rx="6.21"
    ry="6.21"
    id="seat-1-B-1"
  ></ellipse>
  <ellipse
    style="stroke: rgb(0, 0, 0); stroke-width: 1"
    cx="68.326"
    cy="167.277"
    rx="6.21"
    ry="6.21"
    id="seat-1-C-1"
  ></ellipse>
  <ellipse
    style="stroke: rgb(0, 0, 0); stroke-width: 1"
    cx="44.069"
    cy="145.575"
    rx="6.21"
    ry="6.21"
    id="seat-1-D-1"
  ></ellipse>
  <ellipse
    style="stroke: rgb(0, 0, 0); stroke-width: 1"
    cx="19.581"
    cy="124.238"
    rx="6.21"
    ry="6.21"
    id="seat-1-E-1"
  ></ellipse>
  <ellipse
    style="stroke: rgb(0, 0, 0); stroke-width: 1"
    cx="44.395"
    cy="-286.17"
    rx="6.21"
    ry="6.21"
    id="seat-8-D-1"
    transform="matrix(1, 0, 0, -1, 0, 0)"
  ></ellipse>
  <ellipse
    style="stroke: rgb(0, 0, 0); stroke-width: 1"
    cx="19.395"
    cy="-286.17"
    rx="6.21"
    ry="6.21"
    id="seat-9-E-1"
    transform="matrix(1, 0, 0, -1, 0, 0)"
  ></ellipse>
  <ellipse
    style="stroke: rgb(0, 0, 0); stroke-width: 1"
    cx="19.422"
    cy="-306.17"
    rx="6.21"
    ry="6.21"
    id="seat-10-E-1"
    transform="matrix(1, 0, 0, -1, 0, 0)"
  ></ellipse>
  <ellipse
    style="stroke: rgb(0, 0, 0); stroke-width: 1"
    cx="69.422"
    cy="-286.17"
    rx="6.21"
    ry="6.21"
    id="seat-7-C-1"
    transform="matrix(1, 0, 0, -1, 0, 0)"
  ></ellipse>
  <ellipse
    style="stroke: rgb(0, 0, 0); stroke-width: 1"
    cx="44.19"
    cy="-305.81"
    rx="6.21"
    ry="6.21"
    id="seat-9-D-1"
    transform="matrix(1, 0, 0, -1, 0, 0)"
  ></ellipse>
  <ellipse
    style="stroke: rgb(0, 0, 0); stroke-width: 1"
    cx="20.417"
    cy="-326.75"
    rx="6.21"
    ry="6.21"
    id="seat-11-E-1"
    transform="matrix(1, 0, 0, -1, 0, 0)"
  ></ellipse>
  <ellipse
    style="stroke: rgb(0, 0, 0); stroke-width: 1"
    cx="93.354"
    cy="-285.34"
    rx="6.21"
    ry="6.21"
    id="seat-6-B-1"
    transform="matrix(1, 0, 0, -1, 0, 0)"
  ></ellipse>
  <ellipse
    style="stroke: rgb(0, 0, 0); stroke-width: 1"
    cx="69.638"
    cy="-305.1"
    rx="6.21"
    ry="6.21"
    id="seat-8-C-1"
    transform="matrix(1, 0, 0, -1, 0, 0)"
  ></ellipse>
  <ellipse
    style="stroke: rgb(0, 0, 0); stroke-width: 1"
    cx="45.381"
    cy="-326.8"
    rx="6.21"
    ry="6.21"
    id="seat-10-D-1"
    transform="matrix(1, 0, 0, -1, 0, 0)"
  ></ellipse>
  <ellipse
    style="stroke: rgb(0, 0, 0); stroke-width: 1"
    cx="117.882"
    cy="246.122"
    rx="6.21"
    ry="6.21"
    id="seat-3-A-1"
  ></ellipse>
  <ellipse
    style="stroke: rgb(0, 0, 0); stroke-width: 1"
    cx="17.804"
    cy="166.632"
    rx="6.21"
    ry="6.21"
    id="seat-3-E-1"
  ></ellipse>
  <ellipse
    style="stroke: rgb(0, 0, 0); stroke-width: 1"
    cx="18.057"
    cy="225.467"
    rx="6.21"
    ry="6.21"
    id="seat-6-E-1"
  ></ellipse>
  <ellipse
    style="stroke: rgb(0, 0, 0); stroke-width: 1"
    cx="20.823"
    cy="-348.57"
    rx="6.21"
    ry="6.21"
    id="seat-12-E-1"
    transform="matrix(1, 0, 0, -1, 0, 0)"
  ></ellipse>
  <ellipse
    style="stroke: rgb(0, 0, 0); stroke-width: 1"
    cx="283.072"
    cy="100.676"
    rx="6.21"
    ry="6.21"
    id="seat-6-D-2"
  ></ellipse>
  <ellipse
    style="stroke: rgb(0, 0, 0); stroke-width: 1"
    cx="283.072"
    cy="120.676"
    rx="6.21"
    ry="6.21"
    id="seat-6-C-2"
  ></ellipse>
  <ellipse
    style="stroke: rgb(0, 0, 0); stroke-width: 1"
    cx="283.072"
    cy="140.676"
    rx="6.21"
    ry="6.21"
    id="seat-5-B-2"
  ></ellipse>
  <ellipse
    style="stroke: rgb(0, 0, 0); stroke-width: 1"
    cx="283.072"
    cy="160.676"
    rx="6.21"
    ry="6.21"
    id="seat-5-A-2"
  ></ellipse>
  <ellipse
    style="stroke: rgb(0, 0, 0); stroke-width: 1"
    cx="258.072"
    cy="100.676"
    rx="6.21"
    ry="6.21"
    id="seat-5-D-2"
  ></ellipse>
  <ellipse
    style="stroke: rgb(0, 0, 0); stroke-width: 1"
    cx="258.072"
    cy="120.676"
    rx="6.21"
    ry="6.21"
    id="seat-5-C-2"
  ></ellipse>
  <ellipse
    style="stroke: rgb(0, 0, 0); stroke-width: 1"
    cx="258.072"
    cy="140.676"
    rx="6.21"
    ry="6.21"
    id="seat-4-B-2"
  ></ellipse>
  <ellipse
    style="stroke: rgb(0, 0, 0); stroke-width: 1"
    cx="258.072"
    cy="160.676"
    rx="6.21"
    ry="6.21"
    id="seat-4-A-2"
  ></ellipse>
  <ellipse
    style="stroke: rgb(0, 0, 0); stroke-width: 1"
    cx="233.072"
    cy="100.676"
    rx="6.21"
    ry="6.21"
    id="seat-4-D-2"
  ></ellipse>
  <ellipse
    style="stroke: rgb(0, 0, 0); stroke-width: 1"
    cx="233.072"
    cy="120.676"
    rx="6.21"
    ry="6.21"
    id="seat-4-C-2"
  ></ellipse>
  <ellipse
    style="stroke: rgb(0, 0, 0); stroke-width: 1"
    cx="233.072"
    cy="140.676"
    rx="6.21"
    ry="6.21"
    id="seat-3-B-2"
  ></ellipse>
  <ellipse
    style="stroke: rgb(0, 0, 0); stroke-width: 1"
    cx="233.072"
    cy="160.676"
    rx="6.21"
    ry="6.21"
    id="seat-3-A-2"
  ></ellipse>
  <ellipse
    style="stroke: rgb(0, 0, 0); stroke-width: 1"
    cx="208.072"
    cy="100.676"
    rx="6.21"
    ry="6.21"
    id="seat-3-D-2"
  ></ellipse>
  <ellipse
    style="stroke: rgb(0, 0, 0); stroke-width: 1"
    cx="208.072"
    cy="120.676"
    rx="6.21"
    ry="6.21"
    id="seat-3-C-2"
  ></ellipse>
  <ellipse
    style="stroke: rgb(0, 0, 0); stroke-width: 1"
    cx="208.072"
    cy="140.676"
    rx="6.21"
    ry="6.21"
    id="seat-2-B-2"
  ></ellipse>
  <ellipse
    style="stroke: rgb(0, 0, 0); stroke-width: 1"
    cx="208.072"
    cy="160.676"
    rx="6.21"
    ry="6.21"
    id="seat-2-A-2"
  ></ellipse>
  <ellipse
    style="stroke: rgb(0, 0, 0); stroke-width: 1"
    cx="183.072"
    cy="100.676"
    rx="6.21"
    ry="6.21"
    id="seat-2-D-2"
  ></ellipse>
  <ellipse
    style="stroke: rgb(0, 0, 0); stroke-width: 1"
    cx="183.072"
    cy="120.676"
    rx="6.21"
    ry="6.21"
    id="seat-2-C-2"
  ></ellipse>
  <ellipse
    style="stroke: rgb(0, 0, 0); stroke-width: 1"
    cx="183.072"
    cy="140.676"
    rx="6.21"
    ry="6.21"
    id="seat-1-B-2"
  ></ellipse>
  <ellipse
    style="stroke: rgb(0, 0, 0); stroke-width: 1"
    cx="183.072"
    cy="160.676"
    rx="6.21"
    ry="6.21"
    id="seat-1-A-2"
  ></ellipse>
  <ellipse
    style="stroke: rgb(0, 0, 0); stroke-width: 1"
    cx="331.969"
    cy="102.287"
    rx="6.21"
    ry="6.21"
    id="seat-8-D-2"
  ></ellipse>
  <ellipse
    style="stroke: rgb(0, 0, 0); stroke-width: 1"
    cx="331.969"
    cy="122.287"
    rx="6.21"
    ry="6.21"
    id="seat-8-C-2"
  ></ellipse>
  <ellipse
    style="stroke: rgb(0, 0, 0); stroke-width: 1"
    cx="331.969"
    cy="142.287"
    rx="6.21"
    ry="6.21"
    id="seat-7-B-2"
  ></ellipse>
  <ellipse
    style="stroke: rgb(0, 0, 0); stroke-width: 1"
    cx="331.969"
    cy="162.287"
    rx="6.21"
    ry="6.21"
    id="seat-7-A-2"
  ></ellipse>
  <ellipse
    style="stroke: rgb(0, 0, 0); stroke-width: 1"
    cx="306.969"
    cy="102.287"
    rx="6.21"
    ry="6.21"
    id="seat-7-D-2"
  ></ellipse>
  <ellipse
    style="stroke: rgb(0, 0, 0); stroke-width: 1"
    cx="306.969"
    cy="122.287"
    rx="6.21"
    ry="6.21"
    id="seat-7-C-2"
  ></ellipse>
  <ellipse
    style="stroke: rgb(0, 0, 0); stroke-width: 1"
    cx="306.969"
    cy="142.287"
    rx="6.21"
    ry="6.21"
    id="seat-6-B-2"
  ></ellipse>
  <ellipse
    style="stroke: rgb(0, 0, 0); stroke-width: 1"
    cx="306.969"
    cy="162.287"
    rx="6.21"
    ry="6.21"
    id="seat-6-A-2"
  ></ellipse>
  <ellipse
    style="stroke: rgb(0, 0, 0); stroke-width: 1"
    cx="159.28"
    cy="100.787"
    rx="6.21"
    ry="6.21"
    id="seat-1-D-2"
  ></ellipse>
  <ellipse
    style="stroke: rgb(0, 0, 0); stroke-width: 1"
    cx="159.28"
    cy="120.787"
    rx="6.21"
    ry="6.21"
    id="seat-1-C-2"
  ></ellipse>
  <ellipse
    style="stroke: rgb(0, 0, 0); stroke-width: 1"
    cx="354.524"
    cy="102.668"
    rx="6.21"
    ry="6.21"
    id="seat-9-D-2"
  ></ellipse>
  <ellipse
    style="stroke: rgb(0, 0, 0); stroke-width: 1"
    cx="354.524"
    cy="122.668"
    rx="6.21"
    ry="6.21"
    id="seat-9-C-2"
  ></ellipse>
  <ellipse
    style="stroke: rgb(0, 0, 0); stroke-width: 1"
    cx="214.648"
    cy="302.307"
    rx="6.21"
    ry="6.21"
    id="seat-1-A-5"
  ></ellipse>
  <ellipse
    style="stroke: rgb(0, 0, 0); stroke-width: 1"
    cx="189.648"
    cy="302.307"
    rx="6.21"
    ry="6.21"
    id="seat-2-A-5"
  ></ellipse>
  <ellipse
    style="stroke: rgb(0, 0, 0); stroke-width: 1"
    cx="214.565"
    cy="326.21"
    rx="6.21"
    ry="6.21"
    id="seat-1-B-5"
  ></ellipse>
  <ellipse
    style="stroke: rgb(0, 0, 0); stroke-width: 1"
    cx="189.565"
    cy="326.21"
    rx="6.21"
    ry="6.21"
    id="seat-2-B-5"
  ></ellipse>
  <ellipse
    style="stroke: rgb(0, 0, 0); stroke-width: 1"
    cx="214.719"
    cy="348.47"
    rx="6.21"
    ry="6.21"
    id="seat-1-C-5"
  ></ellipse>
  <ellipse
    style="stroke: rgb(0, 0, 0); stroke-width: 1"
    cx="189.719"
    cy="348.47"
    rx="6.21"
    ry="6.21"
    id="seat-2-C-5"
  ></ellipse>
  <ellipse
    style="stroke: rgb(0, 0, 0); stroke-width: 1"
    cx="214.636"
    cy="372.373"
    rx="6.21"
    ry="6.21"
    id="seat-1-D-5"
  ></ellipse>
  <ellipse
    style="stroke: rgb(0, 0, 0); stroke-width: 1"
    cx="189.636"
    cy="372.373"
    rx="6.21"
    ry="6.21"
    id="seat-2-D-5"
  ></ellipse>
  <ellipse
    style="stroke: rgb(0, 0, 0); stroke-width: 1"
    cx="165.721"
    cy="325.539"
    rx="6.21"
    ry="6.21"
    id="seat-3-B-5"
  ></ellipse>
  <ellipse
    style="stroke: rgb(0, 0, 0); stroke-width: 1"
    cx="165.875"
    cy="347.799"
    rx="6.21"
    ry="6.21"
    id="seat-3-C-5"
  ></ellipse>
  <ellipse
    style="stroke: rgb(0, 0, 0); stroke-width: 1"
    cx="165.792"
    cy="371.702"
    rx="6.21"
    ry="6.21"
    id="seat-3-D-5"
  ></ellipse>
  <ellipse
    style="stroke: rgb(0, 0, 0); stroke-width: 1"
    cx="141.428"
    cy="348.331"
    rx="6.21"
    ry="6.21"
    id="seat-4-C-5"
  ></ellipse>
  <ellipse
    style="stroke: rgb(0, 0, 0); stroke-width: 1"
    cx="141.345"
    cy="372.234"
    rx="6.21"
    ry="6.21"
    id="seat-4-D-5"
  ></ellipse>
  <ellipse
    style="stroke: rgb(0, 0, 0); stroke-width: 1"
    cx="116.993"
    cy="372.271"
    rx="6.21"
    ry="6.21"
    id="seat-5-D-5"
  ></ellipse>
  <ellipse
    style="stroke: rgb(0, 0, 0); stroke-width: 1"
    cx="214.058"
    cy="394.948"
    rx="6.21"
    ry="6.21"
    id="seat-1-E-5"
  ></ellipse>
  <ellipse
    style="stroke: rgb(0, 0, 0); stroke-width: 1"
    cx="189.058"
    cy="394.948"
    rx="6.21"
    ry="6.21"
    id="seat-2-E-5"
  ></ellipse>
  <ellipse
    style="stroke: rgb(0, 0, 0); stroke-width: 1"
    cx="165.214"
    cy="394.277"
    rx="6.21"
    ry="6.21"
    id="seat-3-E-5"
  ></ellipse>
  <ellipse
    style="stroke: rgb(0, 0, 0); stroke-width: 1"
    cx="140.767"
    cy="394.809"
    rx="6.21"
    ry="6.21"
    id="seat-4-E-5"
  ></ellipse>
  <ellipse
    style="stroke: rgb(0, 0, 0); stroke-width: 1"
    cx="116.415"
    cy="394.846"
    rx="6.21"
    ry="6.21"
    id="seat-5-E-5"
  ></ellipse>
  <ellipse
    style="stroke: rgb(0, 0, 0); stroke-width: 1"
    cx="94.036"
    cy="394.508"
    rx="6.21"
    ry="6.21"
    id="seat-6-E-5"
  ></ellipse>
  <ellipse
    style="stroke: rgb(0, 0, 0); stroke-width: 1"
    cx="-288.19"
    cy="300.666"
    rx="6.21"
    ry="6.21"
    id="seat-1-A-4"
    transform="matrix(-1, 0, 0, 1, 0, 0)"
  ></ellipse>
  <ellipse
    style="stroke: rgb(0, 0, 0); stroke-width: 1"
    cx="-313.19"
    cy="300.666"
    rx="6.21"
    ry="6.21"
    id="seat-2-A-4"
    transform="matrix(-1, 0, 0, 1, 0, 0)"
  ></ellipse>
  <ellipse
    style="stroke: rgb(0, 0, 0); stroke-width: 1"
    cx="-288.27"
    cy="324.569"
    rx="6.21"
    ry="6.21"
    id="seat-1-B-4"
    transform="matrix(-1, 0, 0, 1, 0, 0)"
  ></ellipse>
  <ellipse
    style="stroke: rgb(0, 0, 0); stroke-width: 1"
    cx="-313.27"
    cy="324.569"
    rx="6.21"
    ry="6.21"
    id="seat-2-B-4"
    transform="matrix(-1, 0, 0, 1, 0, 0)"
  ></ellipse>
  <ellipse
    style="stroke: rgb(0, 0, 0); stroke-width: 1"
    cx="-288.12"
    cy="346.829"
    rx="6.21"
    ry="6.21"
    id="seat-1-C-4"
    transform="matrix(-1, 0, 0, 1, 0, 0)"
  ></ellipse>
  <ellipse
    style="stroke: rgb(0, 0, 0); stroke-width: 1"
    cx="-313.12"
    cy="346.829"
    rx="6.21"
    ry="6.21"
    id="seat-2-C-4"
    transform="matrix(-1, 0, 0, 1, 0, 0)"
  ></ellipse>
  <ellipse
    style="stroke: rgb(0, 0, 0); stroke-width: 1"
    cx="-288.2"
    cy="370.732"
    rx="6.21"
    ry="6.21"
    id="seat-1-D-4"
    transform="matrix(-1, 0, 0, 1, 0, 0)"
  ></ellipse>
  <ellipse
    style="stroke: rgb(0, 0, 0); stroke-width: 1"
    cx="-313.2"
    cy="370.732"
    rx="6.21"
    ry="6.21"
    id="seat-2-D-4"
    transform="matrix(-1, 0, 0, 1, 0, 0)"
  ></ellipse>
  <ellipse
    style="stroke: rgb(0, 0, 0); stroke-width: 1"
    cx="-337.12"
    cy="323.898"
    rx="6.21"
    ry="6.21"
    id="seat-3-B-4"
    transform="matrix(-1, 0, 0, 1, 0, 0)"
  ></ellipse>
  <ellipse
    style="stroke: rgb(0, 0, 0); stroke-width: 1"
    cx="-336.96"
    cy="346.158"
    rx="6.21"
    ry="6.21"
    id="seat-3-C-4"
    transform="matrix(-1, 0, 0, 1, 0, 0)"
  ></ellipse>
  <ellipse
    style="stroke: rgb(0, 0, 0); stroke-width: 1"
    cx="-337.05"
    cy="370.061"
    rx="6.21"
    ry="6.21"
    id="seat-3-D-4"
    transform="matrix(-1, 0, 0, 1, 0, 0)"
  ></ellipse>
  <ellipse
    style="stroke: rgb(0, 0, 0); stroke-width: 1"
    cx="-361.41"
    cy="346.69"
    rx="6.21"
    ry="6.21"
    id="seat-4-C-4"
    transform="matrix(-1, 0, 0, 1, 0, 0)"
  ></ellipse>
  <ellipse
    style="stroke: rgb(0, 0, 0); stroke-width: 1"
    cx="-361.49"
    cy="370.593"
    rx="6.21"
    ry="6.21"
    id="seat-4-D-4"
    transform="matrix(-1, 0, 0, 1, 0, 0)"
  ></ellipse>
  <ellipse
    style="stroke: rgb(0, 0, 0); stroke-width: 1"
    cx="-385.84"
    cy="370.63"
    rx="6.21"
    ry="6.21"
    id="seat-5-D-4"
    transform="matrix(-1, 0, 0, 1, 0, 0)"
  ></ellipse>
  <ellipse
    style="stroke: rgb(0, 0, 0); stroke-width: 1"
    cx="-288.78"
    cy="393.307"
    rx="6.21"
    ry="6.21"
    id="seat-1-E-4"
    transform="matrix(-1, 0, 0, 1, 0, 0)"
  ></ellipse>
  <ellipse
    style="stroke: rgb(0, 0, 0); stroke-width: 1"
    cx="-313.78"
    cy="393.307"
    rx="6.21"
    ry="6.21"
    id="seat-2-E-4"
    transform="matrix(-1, 0, 0, 1, 0, 0)"
  ></ellipse>
  <ellipse
    style="stroke: rgb(0, 0, 0); stroke-width: 1"
    cx="-337.62"
    cy="392.636"
    rx="6.21"
    ry="6.21"
    id="seat-3-E-4"
    transform="matrix(-1, 0, 0, 1, 0, 0)"
  ></ellipse>
  <ellipse
    style="stroke: rgb(0, 0, 0); stroke-width: 1"
    cx="-362.07"
    cy="393.168"
    rx="6.21"
    ry="6.21"
    id="seat-4-E-4"
    transform="matrix(-1, 0, 0, 1, 0, 0)"
  ></ellipse>
  <ellipse
    style="stroke: rgb(0, 0, 0); stroke-width: 1"
    cx="-386.42"
    cy="393.205"
    rx="6.21"
    ry="6.21"
    id="seat-5-E-4"
    transform="matrix(-1, 0, 0, 1, 0, 0)"
  ></ellipse>
  <ellipse
    style="stroke: rgb(0, 0, 0); stroke-width: 1"
    cx="-408.8"
    cy="392.867"
    rx="6.21"
    ry="6.21"
    id="seat-6-E-4"
    transform="matrix(-1, 0, 0, 1, 0, 0)"
  ></ellipse>
  <ellipse
    style="stroke: rgb(0, 0, 0); stroke-width: 1"
    cx="-392.76"
    cy="207.205"
    rx="6.21"
    ry="6.21"
    id="seat-1-A-3"
    transform="matrix(-1, 0, 0, 1, 0, 0)"
  ></ellipse>
  <ellipse
    style="stroke: rgb(0, 0, 0); stroke-width: 1"
    cx="-392.76"
    cy="227.205"
    rx="6.21"
    ry="6.21"
    id="seat-2-A-3"
    transform="matrix(-1, 0, 0, 1, 0, 0)"
  ></ellipse>
  <ellipse
    style="stroke: rgb(0, 0, 0); stroke-width: 1"
    cx="-392.76"
    cy="247.205"
    rx="6.21"
    ry="6.21"
    id="seat-3-A-3"
    transform="matrix(-1, 0, 0, 1, 0, 0)"
  ></ellipse>
  <ellipse
    style="stroke: rgb(0, 0, 0); stroke-width: 1"
    cx="-392.76"
    cy="267.205"
    rx="6.21"
    ry="6.21"
    id="seat-4-A-3"
    transform="matrix(-1, 0, 0, 1, 0, 0)"
  ></ellipse>
  <ellipse
    style="stroke: rgb(0, 0, 0); stroke-width: 1"
    cx="-417.76"
    cy="207.205"
    rx="6.21"
    ry="6.21"
    id="seat-2-B-3"
    transform="matrix(-1, 0, 0, 1, 0, 0)"
  ></ellipse>
  <ellipse
    style="stroke: rgb(0, 0, 0); stroke-width: 1"
    cx="-417.76"
    cy="227.205"
    rx="6.21"
    ry="6.21"
    id="seat-3-B-3"
    transform="matrix(-1, 0, 0, 1, 0, 0)"
  ></ellipse>
  <ellipse
    style="stroke: rgb(0, 0, 0); stroke-width: 1"
    cx="-417.76"
    cy="247.205"
    rx="6.21"
    ry="6.21"
    id="seat-4-B-3"
    transform="matrix(-1, 0, 0, 1, 0, 0)"
  ></ellipse>
  <ellipse
    style="stroke: rgb(0, 0, 0); stroke-width: 1"
    cx="-417.76"
    cy="267.205"
    rx="6.21"
    ry="6.21"
    id="seat-5-B-3"
    transform="matrix(-1, 0, 0, 1, 0, 0)"
  ></ellipse>
  <ellipse
    style="stroke: rgb(0, 0, 0); stroke-width: 1"
    cx="-442.76"
    cy="207.205"
    rx="6.21"
    ry="6.21"
    id="seat-3-C-3"
    transform="matrix(-1, 0, 0, 1, 0, 0)"
  ></ellipse>
  <ellipse
    style="stroke: rgb(0, 0, 0); stroke-width: 1"
    cx="-442.76"
    cy="227.205"
    rx="6.21"
    ry="6.21"
    id="seat-4-C-3"
    transform="matrix(-1, 0, 0, 1, 0, 0)"
  ></ellipse>
  <ellipse
    style="stroke: rgb(0, 0, 0); stroke-width: 1"
    cx="-442.76"
    cy="247.205"
    rx="6.21"
    ry="6.21"
    id="seat-5-C-3"
    transform="matrix(-1, 0, 0, 1, 0, 0)"
  ></ellipse>
  <ellipse
    style="stroke: rgb(0, 0, 0); stroke-width: 1"
    cx="-442.76"
    cy="267.205"
    rx="6.21"
    ry="6.21"
    id="seat-6-C-3"
    transform="matrix(-1, 0, 0, 1, 0, 0)"
  ></ellipse>
  <ellipse
    style="stroke: rgb(0, 0, 0); stroke-width: 1"
    cx="-467.76"
    cy="207.205"
    rx="6.21"
    ry="6.21"
    id="seat-4-D-3"
    transform="matrix(-1, 0, 0, 1, 0, 0)"
  ></ellipse>
  <ellipse
    style="stroke: rgb(0, 0, 0); stroke-width: 1"
    cx="-467.76"
    cy="227.205"
    rx="6.21"
    ry="6.21"
    id="seat-5-D-3"
    transform="matrix(-1, 0, 0, 1, 0, 0)"
  ></ellipse>
  <ellipse
    style="stroke: rgb(0, 0, 0); stroke-width: 1"
    cx="-467.76"
    cy="247.205"
    rx="6.21"
    ry="6.21"
    id="seat-6-D-3"
    transform="matrix(-1, 0, 0, 1, 0, 0)"
  ></ellipse>
  <ellipse
    style="stroke: rgb(0, 0, 0); stroke-width: 1"
    cx="-467.76"
    cy="267.205"
    rx="6.21"
    ry="6.21"
    id="seat-7-D-3"
    transform="matrix(-1, 0, 0, 1, 0, 0)"
  ></ellipse>
  <ellipse
    style="stroke: rgb(0, 0, 0); stroke-width: 1"
    cx="-492.76"
    cy="207.205"
    rx="6.21"
    ry="6.21"
    id="seat-5-E-3"
    transform="matrix(-1, 0, 0, 1, 0, 0)"
  ></ellipse>
  <ellipse
    style="stroke: rgb(0, 0, 0); stroke-width: 1"
    cx="-492.76"
    cy="227.205"
    rx="6.21"
    ry="6.21"
    id="seat-6-E-3"
    transform="matrix(-1, 0, 0, 1, 0, 0)"
  ></ellipse>
  <ellipse
    style="stroke: rgb(0, 0, 0); stroke-width: 1"
    cx="-492.76"
    cy="247.205"
    rx="6.21"
    ry="6.21"
    id="seat-7-E-3"
    transform="matrix(-1, 0, 0, 1, 0, 0)"
  ></ellipse>
  <ellipse
    style="stroke: rgb(0, 0, 0); stroke-width: 1"
    cx="-492.76"
    cy="267.205"
    rx="6.21"
    ry="6.21"
    id="seat-8-E-3"
    transform="matrix(-1, 0, 0, 1, 0, 0)"
  ></ellipse>
  <ellipse
    style="stroke: rgb(0, 0, 0); stroke-width: 1"
    cx="-467.8"
    cy="187.205"
    rx="6.21"
    ry="6.21"
    id="seat-3-D-3"
    transform="matrix(-1, 0, 0, 1, 0, 0)"
  ></ellipse>
  <ellipse
    style="stroke: rgb(0, 0, 0); stroke-width: 1"
    cx="-492.8"
    cy="187.205"
    rx="6.21"
    ry="6.21"
    id="seat-4-E-3"
    transform="matrix(-1, 0, 0, 1, 0, 0)"
  ></ellipse>
  <ellipse
    style="stroke: rgb(0, 0, 0); stroke-width: 1"
    cx="-492.77"
    cy="167.205"
    rx="6.21"
    ry="6.21"
    id="seat-3-E-3"
    transform="matrix(-1, 0, 0, 1, 0, 0)"
  ></ellipse>
  <ellipse
    style="stroke: rgb(0, 0, 0); stroke-width: 1"
    cx="-442.77"
    cy="187.205"
    rx="6.21"
    ry="6.21"
    id="seat-2-C-3"
    transform="matrix(-1, 0, 0, 1, 0, 0)"
  ></ellipse>
  <ellipse
    style="stroke: rgb(0, 0, 0); stroke-width: 1"
    cx="-468"
    cy="167.568"
    rx="6.21"
    ry="6.21"
    id="seat-2-D-3"
    transform="matrix(-1, 0, 0, 1, 0, 0)"
  ></ellipse>
  <ellipse
    style="stroke: rgb(0, 0, 0); stroke-width: 1"
    cx="-491.77"
    cy="146.629"
    rx="6.21"
    ry="6.21"
    id="seat-2-E-3"
    transform="matrix(-1, 0, 0, 1, 0, 0)"
  ></ellipse>
  <ellipse
    style="stroke: rgb(0, 0, 0); stroke-width: 1"
    cx="-418.84"
    cy="188.032"
    rx="6.21"
    ry="6.21"
    id="seat-1-B-3"
    transform="matrix(-1, 0, 0, 1, 0, 0)"
  ></ellipse>
  <ellipse
    style="stroke: rgb(0, 0, 0); stroke-width: 1"
    cx="-442.55"
    cy="168.272"
    rx="6.21"
    ry="6.21"
    id="seat-1-C-3"
    transform="matrix(-1, 0, 0, 1, 0, 0)"
  ></ellipse>
  <ellipse
    style="stroke: rgb(0, 0, 0); stroke-width: 1"
    cx="-466.81"
    cy="146.57"
    rx="6.21"
    ry="6.21"
    id="seat-1-D-3"
    transform="matrix(-1, 0, 0, 1, 0, 0)"
  ></ellipse>
  <ellipse
    style="stroke: rgb(0, 0, 0); stroke-width: 1"
    cx="-491.3"
    cy="125.233"
    rx="6.21"
    ry="6.21"
    id="seat-1-E-3"
    transform="matrix(-1, 0, 0, 1, 0, 0)"
  ></ellipse>
  <ellipse
    style="stroke: rgb(0, 0, 0); stroke-width: 1"
    cx="-466.48"
    cy="-287.17"
    rx="6.21"
    ry="6.21"
    id="seat-8-D-3"
    transform="matrix(-1, 0, 0, -1, 0, 0)"
  ></ellipse>
  <ellipse
    style="stroke: rgb(0, 0, 0); stroke-width: 1"
    cx="-491.48"
    cy="-287.17"
    rx="6.21"
    ry="6.21"
    id="seat-9-E-3"
    transform="matrix(-1, 0, 0, -1, 0, 0)"
  ></ellipse>
  <ellipse
    style="stroke: rgb(0, 0, 0); stroke-width: 1"
    cx="-491.46"
    cy="-307.17"
    rx="6.21"
    ry="6.21"
    id="seat-10-E-3"
    transform="matrix(-1, 0, 0, -1, 0, 0)"
  ></ellipse>
  <ellipse
    style="stroke: rgb(0, 0, 0); stroke-width: 1"
    cx="-441.46"
    cy="-287.17"
    rx="6.21"
    ry="6.21"
    id="seat-7-C-3"
    transform="matrix(-1, 0, 0, -1, 0, 0)"
  ></ellipse>
  <ellipse
    style="stroke: rgb(0, 0, 0); stroke-width: 1"
    cx="-466.69"
    cy="-306.81"
    rx="6.21"
    ry="6.21"
    id="seat-9-D-3"
    transform="matrix(-1, 0, 0, -1, 0, 0)"
  ></ellipse>
  <ellipse
    style="stroke: rgb(0, 0, 0); stroke-width: 1"
    cx="-490.46"
    cy="-327.75"
    rx="6.21"
    ry="6.21"
    id="seat-11-E-3"
    transform="matrix(-1, 0, 0, -1, 0, 0)"
  ></ellipse>
  <ellipse
    style="stroke: rgb(0, 0, 0); stroke-width: 1"
    cx="-417.53"
    cy="-286.33"
    rx="6.21"
    ry="6.21"
    id="seat-6-B-3"
    transform="matrix(-1, 0, 0, -1, 0, 0)"
  ></ellipse>
  <ellipse
    style="stroke: rgb(0, 0, 0); stroke-width: 1"
    cx="-441.24"
    cy="-306.1"
    rx="6.21"
    ry="6.21"
    id="seat-8-C-3"
    transform="matrix(-1, 0, 0, -1, 0, 0)"
  ></ellipse>
  <ellipse
    style="stroke: rgb(0, 0, 0); stroke-width: 1"
    cx="-465.5"
    cy="-327.8"
    rx="6.21"
    ry="6.21"
    id="seat-10-D-3"
    transform="matrix(-1, 0, 0, -1, 0, 0)"
  ></ellipse>
  <ellipse
    style="stroke: rgb(0, 0, 0); stroke-width: 1"
    cx="-489.99"
    cy="-349.13"
    rx="6.21"
    ry="6.21"
    id="seat-12-E-3"
    transform="matrix(-1, 0, 0, -1, 0, 0)"
  ></ellipse>
  <rect
    x="3.044"
    y="324.35"
    width="32.384"
    height="134.295"
    style="
      fill: rgb(216, 216, 216);
      transform-box: fill-box;
      transform-origin: 50% 50%;
      paint-order: fill;
      stroke-dasharray: 4;
      stroke: rgb(0, 0, 0);
    "
    transform="matrix(0.707107, 0.707107, -0.707107, 0.707107, 77.920016, -56.32657)"
  ></rect>
  <rect
    x="3.044"
    y="324.35"
    width="32.384"
    height="134.295"
    style="
      fill: rgb(216, 216, 216);
      stroke-width: 1;
      transform-origin: 19.236px 391.498px;
      paint-order: fill;
      stroke-dasharray: 4;
      stroke: rgb(0, 0, 0);
    "
    transform="matrix(-0.707107, 0.707107, 0.707107, 0.707107, 391.708918, -52.012373)"
  ></rect>
  <rect
    x="3.044"
    y="324.35"
    width="32.384"
    height="134.295"
    style="
      fill: rgb(216, 216, 216);
      stroke-width: 1;
      transform-origin: 19.236px 391.498px;
      paint-order: fill;
      stroke-dasharray: 4;
      stroke: rgb(0, 0, 0);
    "
    transform="matrix(0.707107, -0.707107, -0.707107, -0.707107, 81.430917, -259.852302)"
  ></rect>
  <rect
    x="-3.044"
    y="-324.35"
    width="32.384"
    height="134.295"
    style="
      fill: rgb(216, 216, 216);
      stroke-width: 1;
      transform-origin: 13.148px -257.202px;
      paint-order: fill;
      stroke-dasharray: 4;
      stroke: rgb(0, 0, 0);
    "
    transform="matrix(-0.707107, -0.707107, 0.707107, -0.707107, 402.373937, 385.474921)"
  ></rect>
  <rect
    x="242.01"
    y="-403.76"
    width="21.932"
    height="104.707"
    style="
      fill: rgb(216, 216, 216);
      stroke-width: 1;
      paint-order: fill;
      stroke-dasharray: 4;
      stroke: rgb(0, 0, 0);
      transform-origin: 252.976px -351.409px;
    "
    transform="matrix(1, 0, 0, -1, 0, 702.817322)"
  ></rect>
</svg>
